<?xml version="1.0" encoding="UTF-8"?>
<!DOCTYPE svg PUBLIC "-//W3C//DTD SVG 1.1//EN" "http://www.w3.org/Graphics/SVG/1.1/DTD/svg11.dtd">
<!-- Creator: CorelDRAW -->
<svg xmlns="http://www.w3.org/2000/svg" xml:space="preserve" width="962.52mm" height="83.7066mm" version="1.1" style="shape-rendering:geometricPrecision; text-rendering:geometricPrecision; image-rendering:optimizeQuality; fill-rule:evenodd; clip-rule:evenodd"
viewBox="0 0 50298.24 4374.24"
 xmlns:xlink="http://www.w3.org/1999/xlink"
 xmlns:xodm="http://www.corel.com/coreldraw/odm/2003">
 <defs>
  <style type="text/css">
   <![CDATA[
    .fil0 {fill:#FEFEFE}
   ]]>
  </style>
 </defs>
 <g id="Camada_x0020_1">
  <metadata id="CorelCorpID_0Corel-Layer"/>
  <path id="LOGO_CUTE-LASER.cdr" class="fil0" d="M9546.85 91.89l-815.39 -38.01c0,1101.36 453.55,3560.94 -1022.28,3578.36 -1549.77,18.22 -1041.67,-2435.4 -1070.95,-3577.51l-808.67 -0.04c-9.41,1629.74 -527.89,4329.27 1879.71,4316.07 2361.78,-13.03 1833.6,-2680.46 1837.63,-4278.82l-0.04 -0.04zm-5688.44 3536.16l-398.97 -501.67c-617.88,288.71 -854.05,672.23 -1690.85,397.76 -1230.65,-403.55 -1253.42,-2292.39 -16.89,-2705.32 949.47,-317.1 1092.64,160.06 1732.08,436.46l394.46 -577.65c-1271.88,-1393.33 -3944.05,-525 -3877,1574.02 64.44,2018.29 2585.52,2845.83 3857.29,1376.36l-0.12 0.04zm7513.56 -2854.72l1301.54 9.78 28.04 3527.87 818.69 1.21 0.72 -3501.52 1294.29 -34.92 36.08 -707.19 -3476.9 -13.19 -2.37 717.96 -0.08 0zm5392.62 1723.19l566.07 40.23 4598.18 -6.8 581.88 -10.29 -0.16 -683.94 -5348.61 -17.98 -396.51 27.07 -0.88 651.59 0.04 0.12zm29972.35 -697.33l792.42 18.86 35.12 -1052.33c1073.17,-2.09 1916.68,-247.31 1884.62,1050.84l737.67 3.06c402.87,-1979.67 -2155.86,-1903.96 -3448.26,-1738.03l-1.53 1717.64 -0.04 -0.04zm-3.78 2539.58l818.57 -33.99 6.76 -1245.94 1096.06 -1.37c669.57,1102.13 344.14,1237.13 1643.7,1258.85l-872.27 -1364.21 435.69 -392.61 -3121.7 -26.55 -6.92 1805.81 0.12 0zm-8372.52 -1010.61c-933.5,707.55 -1474.22,25.02 -2234.87,-317.83l-275.31 650.83c1180.65,1356.4 4181.23,560.52 3281.6,-1040.66 -277.08,-179.85 -966.73,-97.55 -1379.01,-78.04 411.04,220.57 598.93,230.54 607.54,785.71l0.04 0zm3010.88 952.65l3198.42 32.02 -3.14 -698.53 -2348.67 -15.81 -37.65 -1062.5 -802.76 4.87 -6.19 1740.04 0 -0.08zm-5119.28 -2466.74l1572.26 -0.76c-517.76,-154.83 -949.34,-321.93 -782.69,-872.35 597.48,-501.91 1242.28,-15.16 1831.12,160.71l332.39 -671.38c-1414.16,-945.37 -3865.74,-219.27 -2952.99,1383.79l-0.08 0zm5122.9 -18.18l793.71 24.34 34.32 -1055.43 2290.3 0.48 -0.2 -709.79 -3117.88 4.3 -0.2 1736.1 -0.04 0zm-24611.23 2484.47l3197.21 32.34 -0.92 -697.65 -2350.76 -16.41 -46.14 -541.93 -787.76 1.53 -11.63 1222.08 0 0.04zm8929.86 11.63l1.65 0.16 0 42.24 1334.32 0 77.96 0 1232.71 0 0 -73.78 0 -650.58 -1828.3 -37.37 -1.49 -114.84 -2.41 -913.35 -805.7 -9.5 -5.31 1075.02 -1.73 0 0 346.95 -1.65 335.05 -0.04 0zm-8922.5 -3013.09l778.95 20.95 55.07 -534.17 2279.4 0.28 2.05 -714.18 -3118.45 8.17 3.06 1218.91 -0.08 0.04zm14160.8 524.27l758.95 9.33 384.05 -804.53 407.7 812.05 777.22 -1.09 -708.95 -1751.34 -830.4 -6.92 -788.44 1742.54 -0.12 -0.04zm-5257.01 36.49l851.44 -0.04 0.12 -1787.47 -850.19 0 -1.33 1787.51 -0.04 0zm7825.6 2467.62l864.19 4.46 -752.36 -1781.99 -828.99 12.71 717.16 1764.78 0 0.04zm-3668.14 -5.8l859.81 7.28 720.62 -1772.31 -807.27 -6.19 -773.19 1771.21 0.04 0z"/>
 </g>
</svg>
