<?xml version="1.0" encoding="UTF-8"?>
<!DOCTYPE svg PUBLIC "-//W3C//DTD SVG 1.1//EN" "http://www.w3.org/Graphics/SVG/1.1/DTD/svg11.dtd">
<!-- Creator: CorelDRAW -->
<svg xmlns="http://www.w3.org/2000/svg" xml:space="preserve" width="400.285mm" height="31.9021mm" version="1.1" style="shape-rendering:geometricPrecision; text-rendering:geometricPrecision; image-rendering:optimizeQuality; fill-rule:evenodd; clip-rule:evenodd"
viewBox="0 0 38480.62 3066.85"
 xmlns:xlink="http://www.w3.org/1999/xlink"
 xmlns:xodm="http://www.corel.com/coreldraw/odm/2003">
 <defs>
  <style type="text/css">
   <![CDATA[
    .str0 {stroke:#373435;stroke-width:19.23;stroke-miterlimit:22.9256}
    .fil0 {fill:#373435}
   ]]>
  </style>
 </defs>
 <g id="Camada_x0020_1">
  <metadata id="CorelCorpID_0Corel-Layer"/>
  <path id="LOGO_CUTE-LASER.cdr" class="fil0 str0" d="M4214.45 9.61l0 556.13 -1609.81 0c-5.46,121.31 -9.91,221.15 -15.25,337.38l-639.45 0 0 -893.51 2264.5 0zm-1.02 2481.6l0 566.02 -2265.77 0 0 -934.4 596.9 0 0 368.38 1668.87 0zm-4203.82 -1210.44l6131.96 0 0 502.64 -6131.96 0 0 -502.64zm26134.71 1525.33l517.5 4.45 433.8 -1066.9 -485.88 -3.69 -465.43 1066.14zm2207.85 3.43l520.18 2.66 -452.85 -1072.61 -498.96 7.62 431.64 1062.32zm-4710.4 -1485.32l512.55 0 0 -1075.91 -511.67 0 -0.88 1075.91zm3164.36 -21.85l456.79 5.59 231.19 -484.36 245.42 488.8 467.84 -0.63 -426.81 -1054.2 -499.85 -4.06 -474.57 1048.85zm-8523.62 -315.65l468.86 12.57 33.15 -321.51 1372.02 0.26 1.27 -429.86 -1877.08 4.83 1.78 733.71zm5370.56 1813.55l1.01 0.13 0 25.4 803.07 0 47 0 741.97 0 0 -44.33 0 -391.63 -1100.44 -22.61 -1.02 -69.1 -1.39 -549.64 -484.99 -5.72 -3.17 647.07 -1.02 0 0 208.83 -1.01 201.59zm-5375.01 -6.98l1924.45 19.56 -0.51 -419.96 -1414.95 -9.9 -27.82 -326.21 -474.2 1.02 -6.98 735.49zm14813.85 -1495.36l477.74 14.61 20.71 -635.27 1378.49 0.26 -0.12 -427.2 -1876.69 2.55 -0.12 1045.04zm-3083.58 10.92l946.35 -0.51c-311.6,-93.1 -571.37,-193.71 -471.15,-524.99 359.74,-302.07 747.81,-9.15 1102.21,96.66l200.06 -404.07c-851.2,-569.08 -2326.87,-131.98 -1777.48,832.91zm3081.41 1484.81l1925.09 19.19 -1.91 -420.47 -1413.68 -9.53 -22.61 -639.57 -483.21 2.92 -3.68 1047.46zm-1812.29 -573.4c-561.97,425.79 -887.4,14.99 -1345.21,-191.3l-165.76 391.75c710.71,816.4 2516.77,337.38 1975.26,-626.37 -166.78,-108.35 -581.9,-58.81 -829.99,-47.12 247.46,132.87 360.51,138.84 365.71,473.04zm5039.53 608.21l492.74 -20.46 4.07 -749.84 659.65 -0.88c403.06,663.33 207.19,744.63 989.41,757.71l-525 -821.1 262.31 -236.39 -1879.1 -16.01 -4.07 1086.97zm2.16 -1528.64l476.98 11.43 21.22 -633.48c645.93,-1.27 1153.66,-148.87 1134.34,632.59l443.96 1.78c242.5,-1191.64 -1297.58,-1146.03 -2075.49,-1046.19l-1.02 1033.86zm-18040.71 419.82l340.81 24.14 2767.66 -4.07 350.34 -6.23 -0.12 -411.57 -3219.36 -10.8 -238.69 16.27 -0.63 392.25zm-3245.78 -1037.3l783.37 5.97 16.9 2123.38 492.73 0.76 0.51 -2107.5 778.93 -21.09 21.73 -425.66 -2092.77 -8.01 -1.39 432.15zm-4522.53 1718.28l-240.08 -301.93c-371.94,173.77 -514.08,404.58 -1017.74,239.44 -740.82,-242.87 -754.54,-1379.89 -10.29,-1628.35 571.49,-190.92 657.74,96.41 1042.63,262.69l237.42 -347.68c-765.59,-838.63 -2374.01,-316.04 -2333.61,947.49 38.74,1214.76 1556.2,1712.96 2321.67,828.34zm3424 -2128.45l-490.84 -22.86c0,662.94 272.98,2143.44 -615.32,2153.86 -932.75,11.05 -627,-1465.89 -644.66,-2153.36l-486.76 0c-5.59,981.03 -317.7,2605.82 1131.42,2597.82 1421.56,-7.75 1103.74,-1613.36 1106.16,-2575.46z"/>
 </g>
</svg>
