<?xml version="1.0" encoding="UTF-8"?>
<!DOCTYPE svg PUBLIC "-//W3C//DTD SVG 1.1//EN" "http://www.w3.org/Graphics/SVG/1.1/DTD/svg11.dtd">
<!-- Creator: CorelDRAW -->
<svg xmlns="http://www.w3.org/2000/svg" xml:space="preserve" width="211.667mm" height="143.697mm" version="1.1" style="shape-rendering:geometricPrecision; text-rendering:geometricPrecision; image-rendering:optimizeQuality; fill-rule:evenodd; clip-rule:evenodd"
viewBox="0 0 797.86 541.65"
 xmlns:xlink="http://www.w3.org/1999/xlink"
 xmlns:xodm="http://www.corel.com/coreldraw/odm/2003">
 <defs>
  <style type="text/css">
   <![CDATA[
    .fil0 {fill:#DACFBE;fill-rule:nonzero}
   ]]>
  </style>
 </defs>
 <g id="Camada_x0020_1">
  <metadata id="CorelCorpID_0Corel-Layer"/>
  <g id="email_logo.svg">
   <g>
    <path class="fil0" d="M700.4 0l-602.94 0c-53.74,0 -97.46,43.72 -97.46,97.46l0 346.74c0,53.74 43.72,97.46 97.46,97.46l602.94 0c53.74,0 97.46,-43.72 97.46,-97.46l0 -346.73c0.01,-53.75 -43.71,-97.47 -97.46,-97.47zm-47.62 63.58l-253.85 163.55 -253.85 -163.55 507.7 0zm47.62 414.51l-602.94 0c-18.68,0 -33.88,-15.21 -33.88,-33.88l0 -344.94 315.74 203.03c0.42,0.26 0.88,0.45 1.31,0.69 0.46,0.25 0.92,0.5 1.39,0.73 2.45,1.26 4.97,2.28 7.54,2.95 0.26,0.07 0.53,0.11 0.79,0.17 2.83,0.67 5.69,1.08 8.55,1.08 0.01,0 0.02,0 0.02,0 0.02,0 0.03,0 0.04,0 2.86,0 5.72,-0.4 8.55,-1.08 0.26,-0.06 0.53,-0.1 0.79,-0.17 2.57,-0.67 5.09,-1.68 7.54,-2.95 0.47,-0.23 0.93,-0.48 1.39,-0.73 0.43,-0.24 0.89,-0.42 1.31,-0.69l315.74 -203.03 0 344.93c-0.01,18.68 -15.22,33.89 -33.9,33.89z"/>
   </g>
  </g>
 </g>
</svg>
