<?xml version="1.0" encoding="UTF-8"?>
<!DOCTYPE svg PUBLIC "-//W3C//DTD SVG 1.1//EN" "http://www.w3.org/Graphics/SVG/1.1/DTD/svg11.dtd">
<!-- Creator: CorelDRAW -->
<svg xmlns="http://www.w3.org/2000/svg" xml:space="preserve" width="67.7334mm" height="67.7334mm" version="1.1" style="shape-rendering:geometricPrecision; text-rendering:geometricPrecision; image-rendering:optimizeQuality; fill-rule:evenodd; clip-rule:evenodd"
viewBox="0 0 95.99 95.99"
 xmlns:xlink="http://www.w3.org/1999/xlink"
 xmlns:xodm="http://www.corel.com/coreldraw/odm/2003">
 <defs>
  <style type="text/css">
   <![CDATA[
    .fil0 {fill:#DACFBE;fill-rule:nonzero}
   ]]>
  </style>
 </defs>
 <g id="Camada_x0020_1">
  <metadata id="CorelCorpID_0Corel-Layer"/>
  <g id="insta_logo.svg">
   <g>
    <g>
     <path class="fil0" d="M47.99 8.65c12.82,0 14.33,0.05 19.39,0.28 4.68,0.21 7.22,1 8.91,1.65 2.24,0.87 3.84,1.91 5.52,3.59 1.68,1.68 2.72,3.28 3.59,5.52 0.66,1.69 1.44,4.23 1.65,8.91 0.23,5.06 0.28,6.58 0.28,19.39 0,12.82 -0.05,14.33 -0.28,19.39 -0.21,4.68 -1,7.22 -1.65,8.91 -0.87,2.24 -1.91,3.84 -3.59,5.52 -1.68,1.68 -3.28,2.72 -5.52,3.59 -1.69,0.66 -4.23,1.44 -8.91,1.65 -5.06,0.23 -6.58,0.28 -19.39,0.28 -12.82,0 -14.33,-0.05 -19.39,-0.28 -4.68,-0.21 -7.22,-1 -8.91,-1.65 -2.24,-0.87 -3.84,-1.91 -5.52,-3.59 -1.68,-1.68 -2.72,-3.28 -3.59,-5.52 -0.66,-1.69 -1.44,-4.23 -1.65,-8.91 -0.23,-5.06 -0.28,-6.58 -0.28,-19.39 0,-12.82 0.05,-14.33 0.28,-19.39 0.21,-4.68 1,-7.22 1.65,-8.91 0.87,-2.24 1.91,-3.84 3.59,-5.52 1.68,-1.68 3.28,-2.72 5.52,-3.59 1.69,-0.66 4.23,-1.44 8.91,-1.65 5.06,-0.23 6.58,-0.28 19.39,-0.28l0 0zm0 -8.65c-13.03,0 -14.67,0.06 -19.79,0.29 -5.11,0.23 -8.6,1.04 -11.65,2.23 -3.16,1.23 -5.83,2.87 -8.5,5.54 -2.67,2.67 -4.31,5.34 -5.54,8.5 -1.19,3.05 -2,6.54 -2.23,11.65 -0.23,5.12 -0.29,6.75 -0.29,19.79 0,13.03 0.06,14.67 0.29,19.79 0.23,5.11 1.04,8.6 2.23,11.65 1.23,3.16 2.87,5.83 5.54,8.5 2.67,2.67 5.34,4.31 8.5,5.54 3.05,1.19 6.54,2 11.65,2.23 5.12,0.23 6.75,0.29 19.79,0.29 13.03,0 14.67,-0.06 19.79,-0.29 5.11,-0.23 8.6,-1.04 11.65,-2.23 3.16,-1.23 5.83,-2.87 8.5,-5.54 2.67,-2.67 4.31,-5.34 5.54,-8.5 1.19,-3.05 2,-6.54 2.23,-11.65 0.23,-5.12 0.29,-6.75 0.29,-19.79 0,-13.03 -0.06,-14.67 -0.29,-19.79 -0.23,-5.11 -1.04,-8.6 -2.23,-11.65 -1.23,-3.16 -2.87,-5.83 -5.54,-8.5 -2.67,-2.67 -5.34,-4.31 -8.5,-5.54 -3.05,-1.19 -6.54,-2 -11.65,-2.23 -5.12,-0.23 -6.75,-0.29 -19.79,-0.29zm0 23.35c-13.61,0 -24.65,11.03 -24.65,24.65 0,13.61 11.03,24.65 24.65,24.65 13.61,0 24.65,-11.03 24.65,-24.65 0,-13.61 -11.03,-24.65 -24.65,-24.65zm0 40.64c-8.84,0 -16,-7.16 -16,-16 0,-8.84 7.16,-16 16,-16 8.84,0 16,7.16 16,16 0,8.84 -7.16,16 -16,16zm31.38 -41.62c0,3.18 -2.58,5.76 -5.76,5.76 -3.18,0 -5.76,-2.58 -5.76,-5.76 0,-3.18 2.58,-5.76 5.76,-5.76 3.18,0 5.76,2.58 5.76,5.76z"/>
    </g>
   </g>
  </g>
 </g>
</svg>
