<?xml version="1.0" encoding="UTF-8"?>
<!DOCTYPE svg PUBLIC "-//W3C//DTD SVG 1.1//EN" "http://www.w3.org/Graphics/SVG/1.1/DTD/svg11.dtd">
<!-- Creator: CorelDRAW -->
<svg xmlns="http://www.w3.org/2000/svg" xml:space="preserve" width="211.667mm" height="211.667mm" version="1.1" style="shape-rendering:geometricPrecision; text-rendering:geometricPrecision; image-rendering:optimizeQuality; fill-rule:evenodd; clip-rule:evenodd"
viewBox="0 0 582.09 582.09"
 xmlns:xlink="http://www.w3.org/1999/xlink"
 xmlns:xodm="http://www.corel.com/coreldraw/odm/2003">
 <defs>
  <style type="text/css">
   <![CDATA[
    .fil0 {fill:#DACFBE;fill-rule:nonzero}
   ]]>
  </style>
 </defs>
 <g id="Camada_x0020_1">
  <metadata id="CorelCorpID_0Corel-Layer"/>
  <g id="wpp_logo.svg">
   <g id="XMLID_468_">
    <path id="XMLID_469_" class="fil0" d="M430.72 334.48c-1.13,-0.54 -43.57,-21.44 -51.11,-24.15 -3.08,-1.11 -6.38,-2.18 -9.88,-2.18 -5.73,0 -10.54,2.86 -14.29,8.46 -4.24,6.3 -17.07,21.3 -21.04,25.78 -0.52,0.59 -1.22,1.3 -1.65,1.3 -0.38,0 -6.95,-2.7 -8.94,-3.57 -45.52,-19.77 -80.08,-67.33 -84.81,-75.34 -0.68,-1.15 -0.7,-1.68 -0.71,-1.68 0.17,-0.61 1.7,-2.15 2.49,-2.94 2.31,-2.29 4.82,-5.3 7.24,-8.22 1.15,-1.38 2.3,-2.76 3.42,-4.07 3.52,-4.09 5.08,-7.26 6.89,-10.94l0.95 -1.91c4.43,-8.8 0.65,-16.23 -0.58,-18.63 -1,-2.01 -18.92,-45.25 -20.83,-49.8 -4.58,-10.96 -10.63,-16.07 -19.05,-16.07 -0.78,0 0,0 -3.27,0.14 -3.99,0.17 -25.69,3.03 -35.29,9.08 -10.18,6.42 -27.39,26.87 -27.39,62.84 0,32.37 20.54,62.94 29.36,74.56 0.22,0.29 0.62,0.89 1.21,1.74 33.78,49.33 75.89,85.89 118.57,102.94 41.1,16.42 60.56,18.31 71.62,18.31 0,0 0,0 0,0 4.65,0 8.37,-0.36 11.65,-0.69l2.08 -0.2c14.2,-1.26 45.4,-17.43 52.49,-37.15 5.59,-15.53 7.06,-32.5 3.35,-38.66 -2.55,-4.19 -6.94,-6.3 -12.5,-8.96z"/>
    <path id="XMLID_470_" class="fil0" d="M296.21 0c-157.65,0 -285.9,127.29 -285.9,283.76 0,50.61 13.54,100.14 39.2,143.5l-49.11 144.85c-0.91,2.7 -0.23,5.69 1.76,7.72 1.44,1.47 3.4,2.27 5.4,2.27 0.77,0 1.54,-0.12 2.29,-0.36l151.04 -48c41.33,22.08 88.05,33.74 135.32,33.74 157.63,0 285.88,-127.28 285.88,-283.72 0,-156.46 -128.24,-283.76 -285.88,-283.76zm0 508.37c-44.49,0 -87.57,-12.85 -124.61,-37.15 -1.25,-0.82 -2.69,-1.24 -4.15,-1.24 -0.77,0 -1.54,0.12 -2.29,0.36l-75.66 24.05 24.43 -72.06c0.79,-2.33 0.39,-4.9 -1.06,-6.89 -28.2,-38.54 -43.11,-84.07 -43.11,-131.68 0,-123.87 101.59,-224.65 226.46,-224.65 124.85,0 226.43,100.78 226.43,224.65 0,123.85 -101.57,224.62 -226.43,224.62z"/>
   </g>
  </g>
 </g>
</svg>
